<svg viewBox="0 0 26 30" xmlns="http://www.w3.org/2000/svg"><path d="M12.994 0C6.365 0 .969 5.396.969 12.025c0 .755.069 1.516.214 2.258q.008.065.081.402c.183.812.453 1.61.805 2.372 1.296 3.05 4.145 7.736 10.397 12.754a.854.854 0 0 0 1.069 0c6.245-5.018 9.1-9.704 10.396-12.754a11.7 11.7 0 0 0 .887-2.774c.138-.742.214-1.503.214-2.258C25.019 5.396 19.622 0 12.994 0m10.138 13.987c0 .013-.006.026-.006.038l-.057.27v.013a10 10 0 0 1-.698 2.05c-.006.007-.006.02-.012.026-1.176 2.786-3.755 7.037-9.365 11.673-5.61-4.636-8.189-8.887-9.365-11.673-.006-.007-.006-.02-.012-.026a10.7 10.7 0 0 1-.699-2.05v-.012c-.037-.145-.05-.24-.056-.27 0-.013-.006-.026-.006-.045a10.3 10.3 0 0 1-.19-1.962c0-5.692 4.636-10.327 10.328-10.327S23.32 6.327 23.32 12.019c0 .666-.063 1.327-.189 1.968"/><path d="M12.994 4.522c-4.207 0-7.635 3.428-7.635 7.635 0 4.208 3.428 7.635 7.635 7.635 4.208 0 7.635-3.427 7.635-7.635 0-4.207-3.427-7.635-7.635-7.635m0 13.572a5.944 5.944 0 0 1-5.937-5.937 5.95 5.95 0 0 1 5.937-5.937 5.95 5.95 0 0 1 5.937 5.937c0 3.27-2.66 5.937-5.937 5.937"/></svg>