<svg viewBox="0 0 16 17" xmlns="http://www.w3.org/2000/svg"><path d="M6.142 1.983q.892 1.015.892 2.748t-.892 2.758-2.39 1.026q-1.495 0-2.388-1.026Q.482 6.464.482 4.731q0-1.732.882-2.748Q2.254.958 3.753.958q1.497 0 2.39 1.025m-2.39 4.922q.576 0 .893-.574.328-.585.328-1.6 0-1.026-.328-1.6-.318-.585-.892-.584-.564 0-.892.584-.318.574-.318 1.6 0 1.015.318 1.6.328.573.892.574M3.959 16H1.723l5.732-7.844 5.086-6.952h2.214L9.177 8.843zm11.156-6.347q.892 1.025.892 2.758t-.892 2.758q-.89 1.016-2.389 1.016-1.496 0-2.39-1.016-.88-1.025-.88-2.758t.88-2.758q.893-1.026 2.39-1.026t2.39 1.026M11.833 14q.328.585.892.584.564 0 .892-.585.328-.584.328-1.6 0-1.015-.328-1.599t-.892-.584-.892.584q-.318.585-.318 1.6t.318 1.6"/></svg>