<svg viewBox="0 0 30 30" xmlns="http://www.w3.org/2000/svg"><g><path d="m13.132 17.81 4.88-2.81-4.88-2.81z"/><path d="M15 0C6.717 0 0 6.717 0 15s6.717 15 15 15 15-6.717 15-15S23.283 0 15 0m9.373 15.015s0 3.042-.386 4.51a2.35 2.35 0 0 1-1.652 1.651c-1.467.387-7.335.387-7.335.387s-5.852 0-7.335-.402a2.35 2.35 0 0 1-1.652-1.652C5.627 18.057 5.627 15 5.627 15s0-3.042.386-4.509a2.4 2.4 0 0 1 1.652-1.667C9.132 8.438 15 8.438 15 8.438s5.868 0 7.334.401c.803.216 1.436.85 1.653 1.652.401 1.467.386 4.524.386 4.524"/></g></svg>